<?xml version="1.0" encoding="UTF-8" standalone="no"?>
<!-- Created with Inkscape (http://www.inkscape.org/) -->

<svg
   xmlns:dc="http://purl.org/dc/elements/1.1/"
   xmlns:cc="http://creativecommons.org/ns#"
   xmlns:rdf="http://www.w3.org/1999/02/22-rdf-syntax-ns#"
   xmlns:svg="http://www.w3.org/2000/svg"
   xmlns="http://www.w3.org/2000/svg"
   xmlns:sodipodi="http://sodipodi.sourceforge.net/DTD/sodipodi-0.dtd"
   xmlns:inkscape="http://www.inkscape.org/namespaces/inkscape"
   width="210mm"
   height="297mm"
   viewBox="0 0 210 297"
   version="1.1"
   id="svg3915"
   inkscape:version="0.92.4 (5da689c313, 2019-01-14)"
   sodipodi:docname="kill-team-logo.svg">
  <defs
     id="defs3909" />
  <sodipodi:namedview
     id="base"
     pagecolor="#ffffff"
     bordercolor="#666666"
     borderopacity="1.0"
     inkscape:pageopacity="0.0"
     inkscape:pageshadow="2"
     inkscape:zoom="0.35"
     inkscape:cx="400"
     inkscape:cy="560"
     inkscape:document-units="mm"
     inkscape:current-layer="layer1"
     showgrid="false"
     inkscape:window-width="1920"
     inkscape:window-height="1001"
     inkscape:window-x="-9"
     inkscape:window-y="-9"
     inkscape:window-maximized="1" />
  <metadata
     id="metadata3912">
    <rdf:RDF>
      <cc:Work
         rdf:about="">
        <dc:format>image/svg+xml</dc:format>
        <dc:type
           rdf:resource="http://purl.org/dc/dcmitype/StillImage" />
        <dc:title></dc:title>
      </cc:Work>
    </rdf:RDF>
  </metadata>
  <g
     inkscape:label="Layer 1"
     inkscape:groupmode="layer"
     id="layer1">
    <path
       style="fill:#000000;stroke-width:0.26458332"
       d="m 97.73156,191.55056 c -0.168601,-0.20314 -1.667701,-2.43953 -3.331351,-4.96975 -1.663649,-2.53022 -3.505509,-5.31478 -4.093019,-6.1879 -0.587502,-0.87312 -2.433071,-3.67109 -4.101251,-6.21771 -1.668179,-2.54661 -3.27814,-4.94669 -3.577669,-5.33351 -0.70013,-0.90415 -0.687631,-1.24456 0.0507,-1.38099 0.327419,-0.0605 1.3945,-0.28358 2.371281,-0.49573 1.718728,-0.3733 1.792409,-0.36779 2.286569,0.17111 0.280839,0.30625 2.785041,3.97988 5.564899,8.1636 2.77986,4.18372 5.203711,7.6056 5.386342,7.60418 0.182629,-0.001 2.766599,-3.70697 5.742149,-8.23454 2.97554,-4.52757 5.75601,-8.70949 6.17882,-9.29317 l 0.76874,-1.06121 1.07896,1.11164 c 0.59344,0.61141 1.4146,1.28521 1.82483,1.49734 0.92082,0.47618 0.92964,0.73845 0.0602,1.79101 -0.37712,0.45654 -1.53797,2.14366 -2.5797,3.74917 -1.04173,1.60551 -2.54889,3.90919 -3.34925,5.11928 -0.80036,1.21009 -1.8124,2.76085 -2.24897,3.44611 -0.43656,0.68528 -1.22138,1.83441 -1.74406,2.55364 -0.52267,0.71923 -1.02353,1.48629 -1.11302,1.70457 -0.31525,0.76899 -4.290365,6.44744 -4.577681,6.53923 -0.160071,0.0511 -0.428959,-0.0732 -0.597549,-0.27637 z m -0.13294,-10.09875 c -0.0836,-0.21797 -2.35857,-3.74388 -5.055391,-7.83536 -2.696819,-4.09148 -4.903309,-7.58026 -4.903309,-7.75286 0,-0.40153 0.543679,-0.94881 0.94257,-0.94881 0.169169,0 0.757039,0.35719 1.306388,0.79375 0.549341,0.43657 1.20418,0.79375 1.455201,0.79375 0.25102,0 0.90587,-0.35718 1.455211,-0.79375 0.549349,-0.43656 1.115549,-0.79375 1.258228,-0.79375 0.142672,0 0.666232,0.35719 1.163442,0.79375 1.199899,1.05353 2.31752,1.05692 3.541445,0.0108 0.50383,-0.43065 1.0194,-0.78784 1.1457,-0.79375 0.126315,-0.006 0.636485,0.34643 1.133695,0.78299 1.19533,1.04951 1.96917,1.00863 3.27726,-0.17314 l 1.07023,-0.9669 1.33257,1.36084 1.33255,1.36084 -4.54051,6.91729 c -2.49728,3.8045 -4.602975,7.08005 -4.679315,7.27898 -0.18621,0.48528 -1.045696,0.46121 -1.235965,-0.0346 z m 33.1533,-9.01458 c -0.28498,-0.34338 -0.24057,-1.06306 0.25716,-4.16719 0.47632,-2.97068 0.53994,-3.91086 0.30548,-4.51429 -0.53768,-1.38377 -1.40829,-2.33975 -2.63984,-2.89867 -1.20536,-0.54703 -1.50151,-0.55294 -37.330641,-0.74466 -34.355501,-0.18383 -41.932291,-0.35899 -44.24903,-1.02291 -1.65991,-0.4757 -6.14967,-4.8247 -5.96592,-5.77888 0.078,-0.40495 0.89605,-0.65282 5.23579,-1.5864 0.50932,-0.10957 1.83905,-0.63845 2.95496,-1.17528 3.8344,-1.84464 3.72291,-1.83381 20.262221,-1.96688 l 14.88282,-0.11973 v 1.42878 c 0,1.59683 0.440589,2.42981 1.208109,2.28401 0.401039,-0.0762 0.52782,-0.35415 0.5863,-1.28555 0.041,-0.65358 0.138851,-1.36693 0.21734,-1.58521 0.284551,-0.79137 0.89866,0.57731 0.89866,2.00284 0,1.27376 0.0568,1.39606 0.789,1.69936 1.150491,0.47655 1.59225,0.1998 1.59225,-0.9975 0,-1.14388 0.65051,-2.33399 0.899901,-1.64637 0.0792,0.21828 0.176969,1.05172 0.217339,1.85209 l 0.0734,1.4552 1.389059,0.08 1.38906,0.08 0.004,-1.40289 c 0.0021,-0.77159 0.121291,-1.58148 0.264579,-1.79977 0.431501,-0.65731 0.78102,0.18273 0.785651,1.88818 l 0.004,1.49132 1.194091,0.17907 c 1.89275,0.28382 2.205908,0.0765 2.298279,-1.52164 0.0678,-1.17258 0.15756,-1.37548 0.608667,-1.37548 0.44098,0 0.55122,0.2205 0.66146,1.32292 l 0.13229,1.32293 1.389075,0.08 1.38906,0.08 0.004,-1.53518 c 0.002,-0.84435 0.10798,-1.69926 0.235,-1.89981 0.3841,-0.60641 0.81928,-0.0646 0.81928,1.02006 0,1.62712 0.18173,1.85811 1.46187,1.85811 1.78314,0 1.97771,-0.15399 1.97771,-1.56524 0,-1.31878 0.62769,-2.62794 0.89867,-1.87434 0.0785,0.21828 0.17629,0.93163 0.21733,1.58521 0.0855,1.36155 0.5976,1.65017 1.67514,0.94414 0.52388,-0.34327 0.64845,-0.6462 0.64845,-1.57701 0,-1.0831 0.49359,-1.95805 0.88424,-1.56741 0.0958,0.0958 0.17409,0.63424 0.17409,1.19664 0,0.67755 0.13775,1.07539 0.40828,1.17921 0.60854,0.23352 0.76578,-0.0618 0.91315,-1.7152 l 0.13378,-1.50079 8.98417,-0.1633 8.98414,-0.1633 0.40855,-0.63045 c 0.90603,-1.3981 1.53746,-1.82121 2.71164,-1.81702 1.96259,0.007 1.89953,-0.22546 1.69669,6.25389 -0.29324,9.36679 -0.64911,13.70313 -1.37513,16.7558 -0.80966,3.4044 -1.14404,3.97375 -2.33376,3.97375 -0.48815,0 -1.04255,-0.18677 -1.23201,-0.41505 z m -75.126591,-5.96469 c -4.51957,-0.51485 -7.88318,-1.10426 -9.12812,-1.59953 -5.83649,-2.32193 -8.682901,-4.40567 -12.34258,-9.03551 -1.26481,-1.60011 -1.298731,-2.03473 -0.15898,-2.03669 0.472939,-8e-4 1.276609,-0.10825 1.785929,-0.23876 0.509331,-0.13051 1.66165,-0.30572 2.56071,-0.38936 l 1.634671,-0.15207 0.832999,1.3538 c 1.02806,1.67081 3.067661,3.68627 4.696281,4.64071 2.45127,1.43653 1.68631,1.40473 40.017009,1.66348 19.572562,0.13212 35.973422,0.24634 36.446362,0.25382 0.94967,0.015 1.14239,0.50812 0.42975,1.09956 -0.23659,0.19635 -0.8417,1.22401 -1.34469,2.28369 -0.50298,1.05969 -1.16393,2.06018 -1.46876,2.22332 -0.75096,0.4019 -4.64056,0.14205 -5.63665,-0.37656 -0.42737,-0.22252 -1.15384,-0.8324 -1.61436,-1.35528 -0.46052,-0.52289 -1.03478,-0.95071 -1.27613,-0.95071 -0.24136,0 -0.86635,0.47625 -1.38891,1.05833 -0.52255,0.58209 -1.16143,1.05834 -1.41976,1.05834 -0.25831,0 -1.02014,-0.47644 -1.69297,-1.05877 -1.33645,-1.15669 -1.58332,-1.14699 -2.75759,0.10843 -0.83442,0.89206 -1.46515,0.86559 -2.574,-0.108 -0.49721,-0.43656 -1.09382,-0.79374 -1.325785,-0.79374 -0.23196,0 -0.88301,0.41671 -1.446767,0.92604 -0.563758,0.50932 -1.173498,0.92488 -1.354979,0.92347 -0.18148,-0.001 -0.852741,-0.41813 -1.491681,-0.92604 -0.638939,-0.50791 -1.35332,-0.91864 -1.5875,-0.91272 -0.23418,0.006 -0.838009,0.3631 -1.341839,0.79375 -0.50382,0.43065 -1.107469,0.78299 -1.34143,0.78299 -0.233971,0 -0.93024,-0.43213 -1.54727,-0.96028 l -1.121889,-0.96029 -0.711681,0.65314 c -2.124689,1.94991 -1.96745,1.91226 -8.781471,2.10228 -8.5822,0.23932 -21.15721,0.20149 -23.547919,-0.0708 z m 105.171891,-7.27945 c -0.58209,-0.22375 -1.35599,-0.47183 -1.71979,-0.55129 -1.41103,-0.30822 -1.76819,-0.96734 -1.94843,-3.5957 -0.20624,-3.00756 0.0792,-4.32385 1.1448,-5.27871 0.75553,-0.67702 0.9737,-0.7276 3.13848,-0.7276 1.49975,0 2.49485,0.1231 2.80025,0.3464 0.6077,0.44436 0.92428,2.11262 0.93879,4.94701 0.0238,4.65263 -1.23576,6.05852 -4.3541,4.85989 z m -15.13259,-0.94721 c -0.71593,-0.34275 -0.94468,-1.86562 -0.82503,-5.49255 0.0783,-2.37466 0.11777,-2.52385 0.76241,-2.88495 0.41281,-0.23125 0.95369,-0.31205 1.37719,-0.20576 0.93852,0.23556 1.24696,1.43045 1.24883,4.83796 0.001,2.17598 -0.086,2.7838 -0.46154,3.21815 -0.59258,0.68532 -1.36619,0.87934 -2.10186,0.52715 z m 8.02452,-0.22947 c -0.67951,-0.5345 -0.69714,-0.62384 -0.69714,-3.53239 0,-3.39647 0.29485,-4.58159 1.19614,-4.8078 1.84438,-0.46291 2.2345,0.3619 2.23954,4.73488 l 0.004,3.38694 -0.91754,0.38337 c -1.13631,0.47478 -0.99535,0.48753 -1.8249,-0.165 z m -16.90287,0.005 c -0.4025,-0.24033 -0.46302,-0.71964 -0.46302,-3.66722 0,-3.0297 0.0584,-3.46499 0.54837,-4.08789 0.69395,-0.88222 1.65359,-0.90049 2.50636,-0.0477 0.61342,0.61342 0.64922,0.81515 0.64554,3.63802 -0.005,3.68106 -0.24251,4.28515 -1.72208,4.37639 -0.57868,0.0357 -1.26051,-0.0595 -1.51517,-0.21159 z m 4.02835,-0.39969 c -0.14192,-0.37327 -0.25804,-2.07318 -0.25804,-3.77758 0,-3.61188 0.26406,-4.27498 1.7024,-4.27498 1.40653,0 1.59383,0.46884 1.69694,4.24777 0.0857,3.13936 0.0536,3.41184 -0.46302,3.92841 -0.35373,0.35374 -0.89334,0.55507 -1.48766,0.55507 -0.75762,0 -0.981,-0.12733 -1.19062,-0.67868 z m 8.45258,0.25695 c -0.249,-0.30003 -0.3538,-1.4134 -0.36313,-3.85807 -0.0126,-3.29934 0.0118,-3.45656 0.61151,-3.94389 0.78841,-0.64064 1.39916,-0.64242 2.18469,-0.006 0.5928,0.48002 0.61849,0.647 0.60759,3.94861 -0.008,2.43622 -0.1129,3.56971 -0.35748,3.86441 -0.45779,0.55161 -2.22405,0.54851 -2.68318,-0.005 z m -80.050262,-10.1581 c -0.58379,-0.23571 -0.97599,-0.74725 -3.41203,-4.45036 -2.023498,-3.07597 -2.10494,-3.24721 -1.67409,-3.52023 0.19693,-0.12478 1.38139,-0.22871 2.632141,-0.23094 1.834129,-0.003 2.354729,0.0855 2.690839,0.45897 0.814732,0.90521 4.95694,7.29462 4.95694,7.64613 0,0.27434 -0.53861,0.35362 -2.315099,0.34075 -1.27331,-0.009 -2.56872,-0.11917 -2.878701,-0.24432 z m 6.649011,-0.0234 c -0.54266,-0.27481 -4.952381,-6.40969 -5.12055,-7.1238 -0.0514,-0.21828 -0.24829,-0.57547 -0.437539,-0.79375 -0.18924,-0.21828 -1.796042,-2.59953 -3.570671,-5.29167 -1.774621,-2.69213 -3.44673,-5.19245 -3.715811,-5.55625 -0.269068,-0.3638 -1.17525,-1.73302 -2.013749,-3.04271 -2.115,-3.30358 -16.16311,-24.54395 -21.48949,-32.491586 -5.164341,-7.705844 -6.228081,-9.422694 -5.98752,-9.663724 0.0977,-0.0979 3.91605,-0.2126 8.48515,-0.25485 l 8.307458,-0.0768 2.055731,3.16837 c 2.61847,4.035664 7.192002,11.182654 7.859361,12.281724 0.281569,0.46371 3.544419,5.605616 7.250789,11.426456 7.65148,12.01663 8.50913,13.48791 8.50913,14.59712 0,0.4983 -0.38055,1.32915 -1.020019,2.22699 -1.193019,1.67503 -1.743721,3.17529 -1.508929,4.11077 0.092,0.36639 0.57618,1.28279 1.076049,2.03646 0.542751,0.81832 1.114071,2.19267 1.418299,3.41179 0.612572,2.45478 1.279512,3.60227 2.64282,4.54705 1.42553,0.98789 2.453672,1.07443 5.16854,0.43507 1.29404,-0.30475 2.41191,-0.49498 2.48416,-0.42274 0.149611,0.14961 -1.41628,6.20586 -1.67064,6.46135 -0.286089,0.28736 -8.157959,0.30065 -8.722569,0.0147 z m 36.973951,-0.0462 c -0.49298,-0.61573 -2.1557,-6.54844 -1.83528,-6.54844 0.0778,0 1.19066,0.2492 2.47305,0.55376 1.3268,0.31512 2.72007,0.49073 3.23298,0.4075 1.45432,-0.23601 2.81332,-1.30899 3.45738,-2.72974 0.31771,-0.70082 0.73891,-1.63141 0.936,-2.06797 0.1971,-0.43657 0.43469,-1.13945 0.52798,-1.56198 0.0933,-0.42252 0.50107,-1.25595 0.90618,-1.85208 0.88604,-1.30385 1.34964,-2.58511 1.34964,-3.73005 0,-0.82019 -0.3663,-1.4649 -1.93542,-3.40644 -0.53385,-0.66055 -0.78444,-1.32027 -0.88475,-2.32926 -0.1343,-1.35091 -0.0819,-1.49842 1.29786,-3.65665 0.79079,-1.23693 2.03631,-3.20146 2.76782,-4.36562 1.39403,-2.21854 5.70047,-8.97459 6.15575,-9.6573 0.14557,-0.21828 2.64114,-4.14734 5.54572,-8.731254 2.90458,-4.5839 6.17798,-9.73336 7.27422,-11.443226 l 1.99316,-3.10885 h 8.05347 c 4.42941,0 8.24495,0.0735 8.47897,0.16328 0.37015,0.14204 0.33285,0.32273 -0.28673,1.38906 -0.89522,1.54073 -20.79061,31.79257 -22.55684,34.2987 -0.7179,1.01865 -1.76208,2.57711 -2.3204,3.46325 -0.55831,0.88614 -1.36235,2.1363 -1.78673,2.77812 -3.3231,5.02574 -12.1861,18.49148 -13.24456,20.12273 -1.24885,1.92466 -1.36886,2.03019 -2.48239,2.18281 -2.17011,0.29745 -6.83187,0.18587 -7.11708,-0.17035 z m 9.48802,0.0888 c -0.47294,-0.29947 -0.47596,-0.29385 2.42347,-4.52057 l 2.45022,-3.57187 h 2.62054 c 1.61485,0 2.65651,0.1079 2.71426,0.28116 0.0794,0.23812 -0.94166,1.91824 -2.56316,4.21767 -0.61383,0.87048 -1.40971,2.1339 -1.90592,3.02561 l -0.45072,0.80993 -2.4597,-0.004 c -1.35284,-0.002 -2.62588,-0.10927 -2.82899,-0.23788 z m -27.455011,-5.72794 c -0.23709,-0.61784 0.63295,-3.54494 1.494891,-5.02931 0.801309,-1.37997 1.98687,-2.75915 2.371795,-2.75915 0.9314,0 3.716975,5.33332 3.716975,7.11659 0,0.59702 -0.12619,1.08549 -0.28041,1.08549 -0.15424,0 -0.92946,-0.61382 -1.72271,-1.36406 -1.667605,-1.57714 -1.895645,-1.55967 -3.91297,0.29984 -1.285632,1.18505 -1.43945,1.24507 -1.667571,0.6506 z m -44.664831,-3.48746 c -1.587859,-0.12248 -1.647989,-0.16926 -3.651699,-2.84084 -0.87518,-1.1669 -1.72278,-2.24344 -1.88354,-2.39231 -0.16077,-0.14887 -0.41137,-0.46805 -0.55689,-0.70928 -0.14552,-0.24123 -1.020591,-1.42618 -1.94459,-2.63323 l -1.68001,-2.19462 0.80372,-0.20827 c 0.44205,-0.11454 5.12269,-0.17702 10.40142,-0.1388 l 9.597689,0.0695 2.434672,3.57188 c 1.33907,1.96452 2.915349,4.40531 3.502829,5.42395 l 1.068171,1.85208 -1.111742,0.17883 c -1.147448,0.18456 -14.64346,0.20138 -16.98003,0.0211 z m 78.905272,0.007 c -0.40018,-0.0606 -0.72484,-0.25114 -0.72147,-0.42339 0.005,-0.26667 4.01327,-6.59424 6.19739,-9.7839 l 0.68754,-1.00407 10.03529,0.078 c 7.08306,0.0551 10.12422,0.16705 10.33756,0.3806 0.22669,0.22692 0.0767,0.55771 -0.60003,1.32293 -0.49626,0.56119 -2.25203,2.80628 -3.90171,4.9891 -1.64967,2.18281 -3.18254,4.11757 -3.40636,4.29948 -0.30954,0.25156 -2.50066,0.32123 -9.15378,0.29108 -4.81075,-0.0218 -9.07424,-0.0892 -9.47443,-0.14986 z m -43.28669,-0.61889 c -2.368651,-0.4764 -4.586902,-2.32421 -5.666992,-4.72061 -0.812429,-1.80256 -0.811739,-5.52956 0.0011,-7.17922 0.796689,-1.61644 2.444591,-3.27979 4.116271,-4.15485 1.16341,-0.60901 1.709089,-0.72227 3.50049,-0.72659 1.871919,-0.005 2.33141,0.0979 3.895691,0.86795 3.686328,1.81478 5.664708,5.96798 4.595238,9.64681 -0.74367,2.55816 -3.3861,5.47788 -5.42326,5.99237 -1.58061,0.39919 -3.79549,0.52017 -5.01877,0.27414 z m 5.44028,-1.80403 c 1.310849,-0.67652 2.85704,-2.29568 3.371509,-3.53063 0.667311,-1.60186 0.54764,-4.715 -0.241089,-6.27148 -2.0096,-3.96575 -7.334591,-5.19696 -10.892271,-2.51843 -1.20156,0.90463 -2.40974,2.87012 -2.738901,4.45569 -0.72744,3.50406 1.55978,7.30793 4.974151,8.2725 1.600621,0.45218 4.237421,0.25769 5.526601,-0.40765 z m -5.082241,-0.54371 c -1.22287,-0.29512 -1.857661,-0.71275 -2.855791,-1.87884 -1.15117,-1.34488 -1.62936,-2.99094 -1.429999,-4.92249 0.191249,-1.85302 1.106739,-3.29072 2.777551,-4.36189 1.17193,-0.75132 1.37337,-0.79247 3.492609,-0.71346 2.00393,0.0747 2.368261,0.16977 3.34391,0.87236 1.73586,1.25004 2.315091,2.30197 2.434881,4.42197 0.26711,4.72726 -3.215201,7.6799 -7.763161,6.58235 z m 24.974391,-0.40039 c -0.0643,-0.0643 -0.85062,-0.23509 -1.74732,-0.3795 -1.74666,-0.28129 -7.74895,-2.95667 -7.74895,-3.45391 0,-0.33635 0.78095,-1.14923 1.63597,-1.70286 0.33715,-0.21832 1.42795,-0.58437 2.424,-0.81345 0.99607,-0.22909 3.0268,-0.89187 4.51275,-1.47285 2.9986,-1.17239 4.01822,-1.27453 5.591,-0.56009 1.47536,0.67018 1.97588,1.24595 1.97588,2.27292 0,1.448 -1.02225,4.31508 -1.89152,5.30512 -0.78386,0.89277 -0.86891,0.92156 -2.72201,0.92156 -1.05207,0 -1.9655,-0.0526 -2.0298,-0.11694 z m -68.366061,-9.06169 c -0.47021,-0.0984 -1.327621,-1.15571 -5.61067,-6.91887 -2.18637,-2.94193 -2.507261,-3.45431 -2.336431,-3.73072 0.11639,-0.18832 3.15404,-0.28012 9.268601,-0.28012 h 9.095469 l 1.141521,1.77278 c 0.62783,0.97504 2.184929,3.38394 3.460211,5.3531 1.996908,3.08342 2.253948,3.60591 1.852088,3.76486 -0.49077,0.19412 -15.958559,0.22985 -16.870789,0.039 z m 93.988511,-0.0394 c -0.40086,-0.15851 -0.0293,-0.86524 2.59824,-4.94234 1.68629,-2.61655 3.29892,-4.9955 3.58362,-5.28654 0.49501,-0.50605 0.92196,-0.53262 9.77103,-0.60808 5.08937,-0.0434 9.25226,0.0161 9.25086,0.13229 -0.001,0.11616 -0.62648,1.02196 -1.38906,2.01288 -0.76259,0.99093 -1.98184,2.62077 -2.70944,3.62187 -2.85688,3.93075 -3.72461,4.9824 -4.23333,5.13065 -0.75065,0.21875 -16.30676,0.16275 -16.87192,-0.0607 z m -59.441182,-1.7979 c -0.674388,-0.85734 -0.69283,-1.44708 -0.0694,-2.21704 0.956551,-1.18128 2.960571,-0.43459 2.960571,1.10311 0,1.65775 -1.890501,2.38613 -2.891211,1.11393 z m 1.656551,-1.30658 c -0.0797,-0.20764 -0.24416,-0.37753 -0.36553,-0.37753 -0.357669,0 -0.57577,0.52219 -0.4045,0.96851 0.125299,0.32651 0.23876,0.3477 0.53689,0.10028 0.207909,-0.17255 0.312819,-0.48362 0.23314,-0.69126 z m 37.747161,1.47456 c -1.04609,-1.04611 -0.35855,-2.91042 1.07335,-2.91042 1.62826,0 2.38635,1.77299 1.22471,2.8643 -0.76387,0.71761 -1.60957,0.73459 -2.29806,0.0461 z m 1.46947,-1.08139 c 0.27266,-0.44117 -0.34058,-0.94708 -0.70557,-0.58208 -0.30531,0.3053 -0.11423,0.86972 0.29445,0.86972 0.12834,0 0.31334,-0.12944 0.41112,-0.28764 z m -42.744471,-1.57314 c 0,-0.16747 -0.247611,-0.62099 -0.550241,-1.00779 -0.302628,-0.38682 -1.60509,-2.42971 -2.894349,-4.53977 -1.289261,-2.11005 -2.589471,-4.15294 -2.88934,-4.53976 -0.299881,-0.38683 -0.545229,-0.7788 -0.545229,-0.87106 0,-0.0923 -0.125201,-0.31156 -0.278212,-0.48732 -0.153009,-0.17576 -1.47673,-2.22456 -2.941608,-4.5529 -2.55741,-4.06485 -3.890902,-6.162685 -4.456851,-7.011465 -0.145539,-0.21828 -1.345981,-2.12328 -2.667651,-4.23333 -1.32166,-2.11005 -2.787039,-4.37224 -3.256399,-5.02708 -0.46935,-0.65485 -1.195721,-1.78594 -1.614152,-2.513535 -0.41842,-0.72761 -1.422738,-2.3431 -2.231808,-3.58998 -0.809061,-1.24688 -1.59009,-2.4551 -1.735611,-2.68493 -0.145521,-0.22984 -0.659529,-0.98364 -1.142229,-1.67512 -0.63426,-0.90858 -0.78811,-1.31257 -0.55478,-1.45677 0.17758,-0.10975 2.00127,-0.27859 4.05264,-0.3752 4.96561,-0.23385 96.897971,-0.0611 97.141551,0.18258 0.10457,0.1046 -0.0344,0.5073 -0.30873,0.89489 -0.27437,0.3876 -0.61793,0.9014 -0.76345,1.1418 -0.14552,0.24039 -1.17121,1.86175 -2.27932,3.60302 -1.10812,1.74127 -3.30114,5.190015 -4.8734,7.663865 -3.28278,5.16524 -11.54912,18.128255 -14.43654,22.638925 -1.07726,1.68287 -2.37537,3.79126 -2.88469,4.68533 -0.81856,1.43689 -1.47079,2.11712 -1.75627,1.83164 -0.0885,-0.0885 0.64012,-2.29995 2.11741,-6.42682 2.1254,-5.93737 0.45116,-12.69015 -4.39884,-17.742035 -1.16884,-1.21749 -2.55423,-2.46995 -3.07864,-2.78323 -0.52441,-0.31329 -1.19158,-0.77856 -1.48263,-1.03394 -0.88688,-0.77819 -3.55679,-2.05183 -6.48228,-3.09226 l -2.77813,-0.98802 h -6.746875 c -6.700456,0 -6.761445,0.005 -8.863547,0.73781 -7.717059,2.68998 -13.017568,6.901 -15.55664,12.359065 -1.373838,2.95323 -1.50899,3.58342 -1.50899,7.03596 0,3.46204 0.182012,4.30346 2.08367,9.63279 1.110391,3.11183 1.293231,4.07732 0.826752,4.36561 -0.145521,0.0899 -0.264591,0.0265 -0.264591,-0.14097 z m -42.33333,-12.04151 c -5.33939,-7.08617 -4.9283,-6.4685 -4.48972,-6.74588 0.21676,-0.13708 3.915169,-0.24761 8.36113,-0.24987 l 7.97245,-0.004 2.36473,3.63801 c 1.30061,2.00093 2.59457,3.98121 2.87547,4.40064 0.2809,0.41942 0.640369,0.98415 0.798809,1.25494 0.15844,0.27079 0.504971,0.73203 0.77008,1.02496 0.2651,0.29294 0.39361,0.62118 0.28557,0.72942 -0.108039,0.10826 -3.669259,0.22928 -7.913829,0.26898 l -7.7174,0.0722 z m 111.413941,4.13335 c -0.30276,-0.19168 -0.22599,-0.42625 0.40996,-1.25272 0.43037,-0.55928 2.06829,-3.01118 3.63983,-5.44866 l 2.85734,-4.43177 7.71291,0.004 c 7.63963,0.004 8.90353,0.0853 8.90353,0.57583 0,0.13923 -0.59117,0.98854 -1.31372,1.88736 -0.72254,0.89883 -1.93562,2.46768 -2.69573,3.48632 -0.76012,1.01864 -2.01948,2.65575 -2.7986,3.63803 l -1.41657,1.78594 -7.46321,-0.004 c -4.10477,-0.002 -7.63085,-0.11018 -7.83574,-0.23989 z m -46.976581,-0.95948 c -0.840489,-0.9069 -0.863979,-1.9643 -0.0604,-2.71921 0.8665,-0.81404 2.114436,-0.75988 2.808011,0.12185 0.70483,0.89605 0.69277,1.493 -0.0469,2.32085 -0.936145,1.04769 -1.894971,1.14586 -2.700661,0.27651 z m 0.253269,-7.77796 c -1.322189,-0.54116 -1.939038,-1.99801 -1.338069,-3.16017 1.24692,-2.411285 4.292791,-2.045375 4.784341,0.57475 0.22458,1.19715 -0.20578,1.98616 -1.342415,2.46107 -1.00183,0.4186 -1.3366,0.43838 -2.103857,0.12435 z m 1.730857,-1.62263 c 0.43559,-0.81393 0.11995,-1.35245 -0.73491,-1.25382 -0.854575,0.0986 -1.076266,0.75951 -0.461105,1.37467 0.568605,0.56858 0.841805,0.54099 1.196015,-0.12085 z m -64.420027,-1.82255 -5.009999,-0.14115 -3.00869,-3.968755 c -3.840601,-5.06613 -4.839491,-6.51858 -4.670741,-6.79162 0.15566,-0.25187 12.58485,-0.30348 13.81543,-0.0574 0.70186,0.14037 1.264221,0.83377 4.134121,5.09743 1.82696,2.71423 3.32175,5.200965 3.32175,5.526075 0,0.55904 -0.0969,0.58801 -1.78593,0.53382 -0.982271,-0.0315 -4.040441,-0.1208 -6.795941,-0.19843 z m 117.920942,0.0713 c -0.32742,-0.0643 -0.59531,-0.17976 -0.59531,-0.25647 0,-0.11229 1.39283,-2.247255 3.30729,-5.069465 0.14552,-0.21452 1.06626,-1.6223 2.04608,-3.12841 l 1.78149,-2.73836 h 7.28049 c 8.14586,0 7.92627,-0.0621 6.42059,1.81667 -0.47294,0.59014 -1.24172,1.58367 -1.70839,2.20784 -0.46667,0.62418 -1.89924,2.50408 -3.18348,4.17757 l -2.335,3.042715 -6.20922,0.0324 c -3.41507,0.0179 -6.47711,-0.0202 -6.80454,-0.0845 z"
       id="path3898"
       inkscape:connector-curvature="0" />
  </g>
</svg>
