<?xml version="1.0" encoding="utf-8"?>
<!-- Generator: Adobe Illustrator 23.0.3, SVG Export Plug-In . SVG Version: 6.00 Build 0)  -->
<svg version="1.1"
	 id="svg3915" inkscape:version="0.92.4 (5da689c313, 2019-01-14)" sodipodi:docname="kill-team-logo.svg" xmlns:cc="http://creativecommons.org/ns#" xmlns:dc="http://purl.org/dc/elements/1.1/" xmlns:inkscape="http://www.inkscape.org/namespaces/inkscape" xmlns:rdf="http://www.w3.org/1999/02/22-rdf-syntax-ns#" xmlns:sodipodi="http://sodipodi.sourceforge.net/DTD/sodipodi-0.dtd" xmlns:svg="http://www.w3.org/2000/svg"
	 xmlns="http://www.w3.org/2000/svg" xmlns:xlink="http://www.w3.org/1999/xlink" x="0px" y="0px" viewBox="0 0 430 325.2"
	 style="enable-background:new 0 0 430 325.2;" xml:space="preserve">
<style type="text/css">
	.st0{fill:#FFFFFF;}
</style>
<sodipodi:namedview  bordercolor="#666666" borderopacity="1.0" id="base" inkscape:current-layer="layer1" inkscape:cx="400" inkscape:cy="560" inkscape:document-units="mm" inkscape:pageopacity="0.0" inkscape:pageshadow="2" inkscape:window-height="1001" inkscape:window-maximized="1" inkscape:window-width="1920" inkscape:window-x="-9" inkscape:window-y="-9" inkscape:zoom="0.35" pagecolor="#ffffff" showgrid="false">
	</sodipodi:namedview>
<g id="layer1" inkscape:groupmode="layer" inkscape:label="Layer 1">
	<path id="path3898" inkscape:connector-curvature="0" class="st0" d="M213.5,324.4c-0.5-0.6-4.7-6.9-9.4-14.1
		c-4.7-7.2-9.9-15.1-11.6-17.5c-1.7-2.5-6.9-10.4-11.6-17.6c-4.7-7.2-9.3-14-10.1-15.1c-2-2.6-1.9-3.5,0.1-3.9
		c0.9-0.2,4-0.8,6.7-1.4c4.9-1.1,5.1-1,6.5,0.5c0.8,0.9,7.9,11.3,15.8,23.1c7.9,11.9,14.8,21.6,15.3,21.6c0.5,0,7.8-10.5,16.3-23.3
		c8.4-12.8,16.3-24.7,17.5-26.3l2.2-3l3.1,3.2c1.7,1.7,4,3.6,5.2,4.2c2.6,1.3,2.6,2.1,0.2,5.1c-1.1,1.3-4.4,6.1-7.3,10.6
		c-3,4.6-7.2,11.1-9.5,14.5s-5.1,7.8-6.4,9.8c-1.2,1.9-3.5,5.2-4.9,7.2c-1.5,2-2.9,4.2-3.2,4.8c-0.9,2.2-12.2,18.3-13,18.5
		C214.7,325.3,213.9,325,213.5,324.4L213.5,324.4z M213.1,295.8c-0.2-0.6-6.7-10.6-14.3-22.2c-7.6-11.6-13.9-21.5-13.9-22
		c0-1.1,1.5-2.7,2.7-2.7c0.5,0,2.1,1,3.7,2.3c1.6,1.2,3.4,2.2,4.1,2.2s2.6-1,4.1-2.2c1.6-1.2,3.2-2.3,3.6-2.3c0.4,0,1.9,1,3.3,2.3
		c3.4,3,6.6,3,10,0c1.4-1.2,2.9-2.2,3.2-2.3c0.4,0,1.8,1,3.2,2.2c3.4,3,5.6,2.9,9.3-0.5l3-2.7l3.8,3.9l3.8,3.9l-12.9,19.6
		c-7.1,10.8-13,20.1-13.3,20.6C216.1,297.3,213.6,297.2,213.1,295.8L213.1,295.8z M307.1,270.2c-0.8-1-0.7-3,0.7-11.8
		c1.4-8.4,1.5-11.1,0.9-12.8c-1.5-3.9-4-6.6-7.5-8.2c-3.4-1.6-4.3-1.6-105.8-2.1c-97.4-0.5-118.9-1-125.4-2.9
		c-4.7-1.3-17.4-13.7-16.9-16.4c0.2-1.1,2.5-1.9,14.8-4.5c1.4-0.3,5.2-1.8,8.4-3.3c10.9-5.2,10.6-5.2,57.4-5.6l42.2-0.3v4.1
		c0,4.5,1.2,6.9,3.4,6.5c1.1-0.2,1.5-1,1.7-3.6c0.1-1.9,0.4-3.9,0.6-4.5c0.8-2.2,2.5,1.6,2.5,5.7c0,3.6,0.2,4,2.2,4.8
		c3.3,1.4,4.5,0.6,4.5-2.8c0-3.2,1.8-6.6,2.6-4.7c0.2,0.6,0.5,3,0.6,5.3l0.2,4.1l3.9,0.2l3.9,0.2l0-4c0-2.2,0.3-4.5,0.7-5.1
		c1.2-1.9,2.2,0.5,2.2,5.4l0,4.2l3.4,0.5c5.4,0.8,6.3,0.2,6.5-4.3c0.2-3.3,0.4-3.9,1.7-3.9c1.3,0,1.6,0.6,1.9,3.8l0.4,3.8l3.9,0.2
		l3.9,0.2l0-4.4c0-2.4,0.3-4.8,0.7-5.4c1.1-1.7,2.3-0.2,2.3,2.9c0,4.6,0.5,5.3,4.1,5.3c5.1,0,5.6-0.4,5.6-4.4c0-3.7,1.8-7.4,2.5-5.3
		c0.2,0.6,0.5,2.6,0.6,4.5c0.2,3.9,1.7,4.7,4.7,2.7c1.5-1,1.8-1.8,1.8-4.5c0-3.1,1.4-5.6,2.5-4.4c0.3,0.3,0.5,1.8,0.5,3.4
		c0,1.9,0.4,3,1.2,3.3c1.7,0.7,2.2-0.2,2.6-4.9l0.4-4.3l25.5-0.5l25.5-0.5l1.2-1.8c2.6-4,4.4-5.2,7.7-5.2c5.6,0,5.4-0.6,4.8,17.7
		c-0.8,26.6-1.8,38.8-3.9,47.5c-2.3,9.7-3.2,11.3-6.6,11.3C309.2,271.4,307.6,270.9,307.1,270.2L307.1,270.2z M94.1,253.3
		c-12.8-1.5-22.3-3.1-25.9-4.5c-16.5-6.6-24.6-12.5-35-25.6c-3.6-4.5-3.7-5.8-0.5-5.8c1.3,0,3.6-0.3,5.1-0.7
		c1.4-0.4,4.7-0.9,7.3-1.1l4.6-0.4l2.4,3.8c2.9,4.7,8.7,10.4,13.3,13.2c6.9,4.1,4.8,4,113.4,4.7c55.5,0.4,102,0.7,103.3,0.7
		c2.7,0,3.2,1.4,1.2,3.1c-0.7,0.6-2.4,3.5-3.8,6.5c-1.4,3-3.3,5.8-4.2,6.3c-2.1,1.1-13.2,0.4-16-1.1c-1.2-0.6-3.3-2.4-4.6-3.8
		c-1.3-1.5-2.9-2.7-3.6-2.7c-0.7,0-2.5,1.4-3.9,3c-1.5,1.7-3.3,3-4,3c-0.7,0-2.9-1.4-4.8-3c-3.8-3.3-4.5-3.3-7.8,0.3
		c-2.4,2.5-4.2,2.5-7.3-0.3c-1.4-1.2-3.1-2.3-3.8-2.3c-0.7,0-2.5,1.2-4.1,2.6s-3.3,2.6-3.8,2.6c-0.5,0-2.4-1.2-4.2-2.6
		c-1.8-1.4-3.8-2.6-4.5-2.6c-0.7,0-2.4,1-3.8,2.2c-1.4,1.2-3.1,2.2-3.8,2.2c-0.7,0-2.6-1.2-4.4-2.7l-3.2-2.7l-2,1.9
		c-6,5.5-5.6,5.4-24.9,6C136.5,254.2,100.9,254.1,94.1,253.3L94.1,253.3z M392.2,232.7c-1.7-0.6-3.8-1.3-4.9-1.6
		c-4-0.9-5-2.7-5.5-10.2c-0.6-8.5,0.2-12.3,3.2-15c2.1-1.9,2.8-2.1,8.9-2.1c4.3,0,7.1,0.3,7.9,1c1.7,1.3,2.6,6,2.7,14
		C404.6,232.1,401.1,236.1,392.2,232.7L392.2,232.7z M349.3,230c-2-1-2.7-5.3-2.3-15.6c0.2-6.7,0.3-7.2,2.2-8.2
		c1.2-0.7,2.7-0.9,3.9-0.6c2.7,0.7,3.5,4.1,3.5,13.7c0,6.2-0.2,7.9-1.3,9.1C353.6,230.5,351.4,231,349.3,230L349.3,230z
		 M372.1,229.4c-1.9-1.5-2-1.8-2-10c0-9.6,0.8-13,3.4-13.6c5.2-1.3,6.3,1,6.3,13.4l0,9.6l-2.6,1.1
		C374,231.2,374.4,231.2,372.1,229.4L372.1,229.4z M324.2,229.4c-1.1-0.7-1.3-2-1.3-10.4c0-8.6,0.2-9.8,1.6-11.6
		c2-2.5,4.7-2.6,7.1-0.1c1.7,1.7,1.8,2.3,1.8,10.3c0,10.4-0.7,12.1-4.9,12.4C326.8,230.1,324.9,229.8,324.2,229.4L324.2,229.4z
		 M335.6,228.2c-0.4-1.1-0.7-5.9-0.7-10.7c0-10.2,0.7-12.1,4.8-12.1c4,0,4.5,1.3,4.8,12c0.2,8.9,0.2,9.7-1.3,11.1
		c-1,1-2.5,1.6-4.2,1.6C336.8,230.2,336.2,229.8,335.6,228.2L335.6,228.2z M359.5,229c-0.7-0.9-1-4-1-10.9c0-9.4,0-9.8,1.7-11.2
		c2.2-1.8,4-1.8,6.2,0c1.7,1.4,1.8,1.8,1.7,11.2c0,6.9-0.3,10.1-1,11C365.8,230.6,360.8,230.5,359.5,229L359.5,229z M132.6,200.2
		c-1.7-0.7-2.8-2.1-9.7-12.6c-5.7-8.7-6-9.2-4.7-10c0.6-0.4,3.9-0.6,7.5-0.7c5.2,0,6.7,0.2,7.6,1.3c2.3,2.6,14.1,20.7,14.1,21.7
		c0,0.8-1.5,1-6.6,1C137.2,200.8,133.5,200.5,132.6,200.2L132.6,200.2z M151.5,200.1c-1.5-0.8-14-18.2-14.5-20.2
		c-0.1-0.6-0.7-1.6-1.2-2.2c-0.5-0.6-5.1-7.4-10.1-15c-5-7.6-9.8-14.7-10.5-15.7c-0.8-1-3.3-4.9-5.7-8.6c-6-9.4-45.8-69.6-60.9-92.1
		c-14.6-21.8-17.7-26.7-17-27.4c0.3-0.3,11.1-0.6,24.1-0.7l23.5-0.2l5.8,9c7.4,11.4,20.4,31.7,22.3,34.8c0.8,1.3,10,15.9,20.6,32.4
		c21.7,34.1,24.1,38.2,24.1,41.4c0,1.4-1.1,3.8-2.9,6.3c-3.4,4.7-4.9,9-4.3,11.7c0.3,1,1.6,3.6,3.1,5.8c1.5,2.3,3.2,6.2,4,9.7
		c1.7,7,3.6,10.2,7.5,12.9c4,2.8,7,3,14.7,1.2c3.7-0.9,6.8-1.4,7-1.2c0.4,0.4-4,17.6-4.7,18.3C175.4,200.9,153.1,200.9,151.5,200.1
		L151.5,200.1z M256.3,200c-1.4-1.7-6.1-18.6-5.2-18.6c0.2,0,3.4,0.7,7,1.6c3.8,0.9,7.7,1.4,9.2,1.2c4.1-0.7,8-3.7,9.8-7.7
		c0.9-2,2.1-4.6,2.7-5.9c0.6-1.2,1.2-3.2,1.5-4.4c0.3-1.2,1.4-3.6,2.6-5.2c2.5-3.7,3.8-7.3,3.8-10.6c0-2.3-1-4.2-5.5-9.7
		c-1.5-1.9-2.2-3.7-2.5-6.6c-0.4-3.8-0.2-4.2,3.7-10.4c2.2-3.5,5.8-9.1,7.8-12.4c4-6.3,16.2-25.4,17.4-27.4
		c0.4-0.6,7.5-11.8,15.7-24.8c8.2-13,17.5-27.6,20.6-32.4l5.6-8.8h22.8c12.6,0,23.4,0.2,24,0.5c1,0.4,0.9,0.9-0.8,3.9
		c-2.5,4.4-58.9,90.1-63.9,97.2c-2,2.9-5,7.3-6.6,9.8c-1.6,2.5-3.9,6.1-5.1,7.9c-9.4,14.2-34.5,52.4-37.5,57c-3.5,5.5-3.9,5.8-7,6.2
		C270.3,201.3,257.1,201,256.3,200L256.3,200z M283.2,200.2c-1.3-0.8-1.3-0.8,6.9-12.8l6.9-10.1h7.4c4.6,0,7.5,0.3,7.7,0.8
		c0.2,0.7-2.7,5.4-7.3,12c-1.7,2.5-4,6-5.4,8.6l-1.3,2.3l-7,0C287.4,200.9,283.8,200.6,283.2,200.2L283.2,200.2z M205.3,184
		c-0.7-1.8,1.8-10,4.2-14.3c2.3-3.9,5.6-7.8,6.7-7.8c2.6,0,10.5,15.1,10.5,20.2c0,1.7-0.4,3.1-0.8,3.1c-0.4,0-2.6-1.7-4.9-3.9
		c-4.7-4.5-5.4-4.4-11.1,0.8C206.4,185.5,206,185.7,205.3,184L205.3,184z M78.7,174.1c-4.5-0.3-4.7-0.5-10.4-8.1
		c-2.5-3.3-4.9-6.4-5.3-6.8c-0.5-0.4-1.2-1.3-1.6-2s-2.9-4-5.5-7.5l-4.8-6.2l2.3-0.6c1.3-0.3,14.5-0.5,29.5-0.4l27.2,0.2l6.9,10.1
		c3.8,5.6,8.3,12.5,9.9,15.4l3,5.3l-3.2,0.5C123.6,174.6,85.4,174.6,78.7,174.1L78.7,174.1z M302.4,174.1c-1.1-0.2-2.1-0.7-2-1.2
		c0-0.8,11.4-18.7,17.6-27.7l1.9-2.8l28.4,0.2c20.1,0.2,28.7,0.5,29.3,1.1c0.6,0.6,0.2,1.6-1.7,3.8c-1.4,1.6-6.4,8-11.1,14.1
		c-4.7,6.2-9,11.7-9.7,12.2c-0.9,0.7-7.1,0.9-25.9,0.8C315.6,174.5,303.5,174.3,302.4,174.1L302.4,174.1z M179.7,172.4
		c-6.7-1.4-13-6.6-16.1-13.4c-2.3-5.1-2.3-15.7,0-20.4c2.3-4.6,6.9-9.3,11.7-11.8c3.3-1.7,4.8-2,9.9-2.1c5.3,0,6.6,0.3,11,2.5
		c10.4,5.1,16.1,16.9,13,27.3c-2.1,7.3-9.6,15.5-15.4,17C189.5,172.7,183.2,173.1,179.7,172.4L179.7,172.4z M195.1,167.3
		c3.7-1.9,8.1-6.5,9.6-10c1.9-4.5,1.6-13.4-0.7-17.8c-5.7-11.2-20.8-14.7-30.9-7.1c-3.4,2.6-6.8,8.1-7.8,12.6
		c-2.1,9.9,4.4,20.7,14.1,23.4C184,169.7,191.5,169.1,195.1,167.3L195.1,167.3z M180.7,165.7c-3.5-0.8-5.3-2-8.1-5.3
		c-3.3-3.8-4.6-8.5-4.1-14c0.5-5.3,3.1-9.3,7.9-12.4c3.3-2.1,3.9-2.2,9.9-2c5.7,0.2,6.7,0.5,9.5,2.5c4.9,3.5,6.6,6.5,6.9,12.5
		C203.5,160.5,193.6,168.8,180.7,165.7z M251.5,164.6c-0.2-0.2-2.4-0.7-5-1.1c-5-0.8-22-8.4-22-9.8c0-1,2.2-3.3,4.6-4.8
		c1-0.6,4-1.7,6.9-2.3c2.8-0.6,8.6-2.5,12.8-4.2c8.5-3.3,11.4-3.6,15.8-1.6c4.2,1.9,5.6,3.5,5.6,6.4c0,4.1-2.9,12.2-5.4,15
		c-2.2,2.5-2.5,2.6-7.7,2.6C254.3,164.9,251.7,164.8,251.5,164.6L251.5,164.6z M57.7,138.9c-1.3-0.3-3.8-3.3-15.9-19.6
		c-6.2-8.3-7.1-9.8-6.6-10.6c0.3-0.5,8.9-0.8,26.3-0.8h25.8l3.2,5c1.8,2.8,6.2,9.6,9.8,15.2c5.7,8.7,6.4,10.2,5.3,10.7
		C104.2,139.3,60.3,139.4,57.7,138.9L57.7,138.9z M324.1,138.8c-1.1-0.4-0.1-2.5,7.4-14c4.8-7.4,9.4-14.2,10.2-15
		c1.4-1.4,2.6-1.5,27.7-1.7c14.4-0.1,26.2,0,26.2,0.4c0,0.3-1.8,2.9-3.9,5.7c-2.2,2.8-5.6,7.4-7.7,10.3c-8.1,11.1-10.6,14.1-12,14.5
		C369.8,139.6,325.7,139.4,324.1,138.8L324.1,138.8z M155.7,133.7c-1.9-2.4-2-4.1-0.2-6.3c2.7-3.3,8.4-1.2,8.4,3.1
		C163.8,135.2,158.5,137.3,155.7,133.7L155.7,133.7z M160.3,130c-0.2-0.6-0.7-1.1-1-1.1c-1,0-1.6,1.5-1.1,2.7c0.4,0.9,0.7,1,1.5,0.3
		C160.3,131.5,160.6,130.6,160.3,130L160.3,130z M267.3,134.2c-3-3-1-8.3,3-8.3c4.6,0,6.8,5,3.5,8.1
		C271.7,136.1,269.3,136.1,267.3,134.2L267.3,134.2z M271.5,131.1c0.8-1.3-1-2.7-2-1.6c-0.9,0.9-0.3,2.5,0.8,2.5
		C270.7,131.9,271.2,131.6,271.5,131.1z M150.3,126.6c0-0.5-0.7-1.8-1.6-2.9c-0.9-1.1-4.5-6.9-8.2-12.9c-3.7-6-7.3-11.8-8.2-12.9
		c-0.9-1.1-1.5-2.2-1.5-2.5c0-0.3-0.4-0.9-0.8-1.4c-0.4-0.5-4.2-6.3-8.3-12.9c-7.2-11.5-11-17.5-12.6-19.9c-0.4-0.6-3.8-6-7.6-12
		c-3.7-6-7.9-12.4-9.2-14.2c-1.3-1.9-3.4-5.1-4.6-7.1c-1.2-2.1-4-6.6-6.3-10.2c-2.3-3.5-4.5-7-4.9-7.6c-0.4-0.7-1.9-2.8-3.2-4.7
		c-1.8-2.6-2.2-3.7-1.6-4.1c0.5-0.3,5.7-0.8,11.5-1.1c14.1-0.7,274.7-0.2,275.4,0.5c0.3,0.3-0.1,1.4-0.9,2.5
		c-0.8,1.1-1.8,2.6-2.2,3.2c-0.4,0.7-3.3,5.3-6.5,10.2s-9.4,14.7-13.8,21.7c-9.3,14.6-32.7,51.4-40.9,64.2
		c-3.1,4.8-6.7,10.7-8.2,13.3c-2.3,4.1-4.2,6-5,5.2c-0.3-0.3,1.8-6.5,6-18.2c6-16.8,1.3-36-12.5-50.3c-3.3-3.5-7.2-7-8.7-7.9
		c-1.5-0.9-3.4-2.2-4.2-2.9c-2.5-2.2-10.1-5.8-18.4-8.8l-7.9-2.8h-19.1c-19,0-19.2,0-25.1,2.1c-21.9,7.6-36.9,19.6-44.1,35
		c-3.9,8.4-4.3,10.2-4.3,19.9c0,9.8,0.5,12.2,5.9,27.3c3.1,8.8,3.7,11.6,2.3,12.4C150.7,127.3,150.3,127.1,150.3,126.6L150.3,126.6z
		 M30.3,92.5c-15.1-20.1-14-18.3-12.7-19.1c0.6-0.4,11.1-0.7,23.7-0.7l22.6,0L70.6,83c3.7,5.7,7.4,11.3,8.2,12.5
		c0.8,1.2,1.8,2.8,2.3,3.6c0.4,0.8,1.4,2.1,2.2,2.9c0.8,0.8,1.1,1.8,0.8,2.1c-0.3,0.3-10.4,0.6-22.4,0.8L39.7,105L30.3,92.5z
		 M346.2,104.2c-0.9-0.5-0.6-1.2,1.2-3.6c1.2-1.6,5.9-8.5,10.3-15.4l8.1-12.6l21.9,0c21.7,0,25.2,0.2,25.2,1.6
		c0,0.4-1.7,2.8-3.7,5.3c-2,2.5-5.5,7-7.6,9.9c-2.2,2.9-5.7,7.5-7.9,10.3l-4,5.1l-21.2,0C356.7,104.9,346.7,104.6,346.2,104.2
		L346.2,104.2z M213,101.5c-2.4-2.6-2.4-5.6-0.2-7.7c2.5-2.3,6-2.2,8,0.3c2,2.5,2,4.2-0.1,6.6C218,103.7,215.3,104,213,101.5
		L213,101.5z M213.7,79.5c-3.7-1.5-5.5-5.7-3.8-9c3.5-6.8,12.2-5.8,13.6,1.6c0.6,3.4-0.6,5.6-3.8,7
		C216.8,80.3,215.9,80.3,213.7,79.5z M218.6,74.9c1.2-2.3,0.3-3.8-2.1-3.6c-2.4,0.3-3.1,2.2-1.3,3.9
		C216.8,76.8,217.6,76.7,218.6,74.9z M36,69.7l-14.2-0.4L13.3,58C2.4,43.7-0.4,39.6,0.1,38.8c0.4-0.7,35.7-0.9,39.2-0.2
		c2,0.4,3.6,2.4,11.7,14.4c5.2,7.7,9.4,14.7,9.4,15.7c0,1.6-0.3,1.7-5.1,1.5C52.5,70.2,43.8,69.9,36,69.7L36,69.7z M370.3,69.9
		c-0.9-0.2-1.7-0.5-1.7-0.7c0-0.3,3.9-6.4,9.4-14.4c0.4-0.6,3-4.6,5.8-8.9l5-7.8h20.6c23.1,0,22.5-0.2,18.2,5.1
		c-1.3,1.7-3.5,4.5-4.8,6.3c-1.3,1.8-5.4,7.1-9,11.8l-6.6,8.6l-17.6,0.1C379.9,70.2,371.2,70.1,370.3,69.9L370.3,69.9z"/>
</g>
</svg>
